<?xml version="1.0" encoding="UTF-8"?>
<svg xmlns="http://www.w3.org/2000/svg" version="1.1" viewBox="0 0 100 35">
  <defs>
    <style>
      .cls-1 {
        fill: #fff;
      }
    </style>
  </defs>
  <!-- Generator: Adobe Illustrator 28.7.1, SVG Export Plug-In . SVG Version: 1.2.0 Build 142)  -->
  <g>
    <g id="Layer_1">
      <g>
        <path class="cls-1" d="M41.3,4.4l-6.5,9.4h10.3l-10.5,15.5,27.3-18.8h-14.1l4.3-6.2c3.3.2,6.9-.3,10.2.1,9.4,1.4,10.9,13.2,2.7,17.3l6.3,8.8h-9.3l-4.8-8h-1.6l-.2.2v7.9h-27V4.4h13Z"/>
        <path class="cls-1" d="M83.8,3.8c19.5-1.5,20.4,26.4,2.6,27.4-19.1,1.1-20-26.1-2.6-27.4ZM77.4,14.8h-.3v5.3h.3v-2.4h3.8v2.4h.3v-5.3h-.3v2.4h-3.8v-2.4ZM86,14.8c-.8,0-2.2,0-3.1,0v5.3h.4v-2.1h1.9c.4.3,1.5,2.5,2.1,2.1l-1.5-2h0c1.8-.4,1.9-3.2.2-3.3h0ZM88.3,14.8v5.3h.4v-4l2.3,4,2.3-4v4h.4v-5.3l-.2.3s0,0,0,0l-2.5,4.2c0,0-.1,0-.1,0l-2.4-4.2-.3-.4h0Z"/>
        <polygon class="cls-1" points="9 4.4 9 13.9 18 13.9 18 4.4 25.9 4.4 25.9 30.6 18 30.6 18 21.8 9 21.8 9 30.6 .9 30.6 .9 4.4 9 4.4"/>
        <path class="cls-1" d="M83.2,17.7v-2.5h2.7c1.1,0,1.1,1.5.6,2-.1.2-.4.5-.8.5h-2.6Z"/>
      </g>
    </g>
  </g>
</svg>