<?xml version="1.0" encoding="UTF-8"?>
<svg xmlns="http://www.w3.org/2000/svg" version="1.1" viewBox="0 0 100 35">
  <defs>
    <style>
      .cls-1 {
        fill: #fff;
      }
    </style>
  </defs>
  <!-- Generator: Adobe Illustrator 28.7.1, SVG Export Plug-In . SVG Version: 1.2.0 Build 142)  -->
  <g>
    <g id="katman_1">
      <g>
        <g>
          <path class="cls-1" d="M12.5,22.1c1.3,0,2.7.1,4.1.1s2.7,0,4-.1c.3,0,.7,0,1,0l.5.9.3.7c1,2.1,3.1,3.4,5.4,3.4h0l-2.3-4.5-.4-.9c.3,0,.6-.1,1-.2,4.2-.9,6.9-2.3,6.9-3.8s-4.6-3.8-11.1-4.4l.6,1.1c4,.6,6.7,1.9,6.7,3.3s-1.4,2-3.7,2.7c-.3,0-.6.2-.9.2-1,.2-2.2.5-3.5.6-.3,0-.7,0-1,.1-1.1,0-2.3.1-3.6.1s-2.5,0-3.6-.2l-.5.9Z"/>
          <path class="cls-1" d="M3.9,17.5c0-1.4,2.7-2.7,6.7-3.3.4,0,.7-.1,1.1-.2l-6.4,12.9h0c2.3,0,4.4-1.3,5.4-3.4l5.8-11.7h0l4.1,8.3c.2,0,.5,0,.7,0,1-.1,1.9-.3,2.8-.5l-4.9-9.8c-.5-1-1.6-1.7-2.7-1.7h0c-1.2,0-2.2.7-2.7,1.7l-1.6,3.2c-.4,0-.7,0-1.1,0C4.7,13.7.1,15.4.1,17.5s2.7,3,6.9,3.8l.6-1.2c-2.3-.7-3.7-1.6-3.7-2.7Z"/>
        </g>
        <path class="cls-1" d="M46.3,23.1v-11.1h2.1v11.1h-2.1Z"/>
        <path class="cls-1" d="M50.3,23.1v-8.5c0-2.5,1.9-2.6,4-2.6s2.3,0,3.1,0v1.5h-3.2c-1.7,0-1.9.3-1.9,1.7v1.5h4.1v1.5h-4.1v4.9h-2.1Z"/>
        <path class="cls-1" d="M66.9,13h-3.2v10.1h-1.3v-10.1h-3.2v-1h7.8v1Z"/>
        <path class="cls-1" d="M74.8,13h-3c-2.2,0-2.5.4-2.5,2.1v1.8h4.5v1h-4.5v2.1c0,1.8.4,2.1,2.5,2.1h3v1c-.9,0-2,0-2.9,0-2,0-3.9,0-3.9-2.5v-6.3c0-2.4,1.9-2.5,3.9-2.5s1.9,0,2.9,0v1Z"/>
        <path class="cls-1" d="M93.8,20l3.6-7.3c.3-.5.6-.8,1-.8s.8.3.8.9l.6,10.4h-1.3l-.6-9.3-3.4,7.2c-.2.4-.4.6-.8.6s-.6-.2-.8-.6l-3.4-7.2-.6,9.3h-1.2l.7-10.4c0-.6.3-.9.8-.9s.7.2,1,.8l3.5,7.4Z"/>
        <path class="cls-1" d="M41.1,13.2c-.3-.9-1-1.3-1.8-1.3s-1.4.4-1.8,1.3l-3.6,9.9h2.1l1-3h3l-.5-1.5h-2s1.7-5,1.7-5l3.2,9.5h2.2l-3.5-9.9Z"/>
        <path class="cls-1" d="M82.4,12.7c-.2-.6-.6-.8-1-.8s-.8.3-1,.8l-4.1,10.4h1.3l1.2-3.2h3.7l-.4-1h-2.9s2.2-5.7,2.2-5.7l3.7,9.8h1.4l-4-10.4Z"/>
        <g>
          <path class="cls-1" d="M77.6,26.9c-.1,0-.3,0-.5,0-.7,0-.9-.3-.9-1.1s.2-1.1.9-1.1.4,0,.5,0v.2c-.1,0-.3,0-.4,0-.7,0-.7.3-.7.9s0,.9.7.9.3,0,.4,0v.2Z"/>
          <path class="cls-1" d="M78.2,25.8c0-.8.2-1.1.9-1.1s.9.3.9,1.1-.2,1.1-.9,1.1-.9-.3-.9-1.1ZM79.7,25.8c0-.5,0-.9-.6-.9s-.6.4-.6.9,0,.9.6.9.6-.4.6-.9Z"/>
          <path class="cls-1" d="M82.2,26.6v-1.9h.2v2.1c0,.1,0,.2-.2.2s-.2,0-.2-.2l-1.1-1.8v1.9h-.2v-2.1c0-.1,0-.2.2-.2s.2,0,.2.2l1.1,1.8Z"/>
          <path class="cls-1" d="M83.4,25.2c0,.3.1.3.5.5.4.1.6.2.6.6s-.3.6-.8.6-.4,0-.6,0v-.2c.2,0,.4,0,.6,0,.3,0,.5,0,.5-.4s-.2-.4-.5-.4c-.4-.1-.6-.2-.6-.6s.3-.6.8-.6.4,0,.6,0v.2c-.2,0-.3,0-.5,0-.3,0-.6,0-.6.3Z"/>
          <path class="cls-1" d="M86.9,26.2c0,.6-.3.7-.8.7s-.8-.2-.8-.7v-1.5h.2v1.5c0,.3.2.5.6.5s.6-.2.6-.5v-1.5h.2v1.5Z"/>
          <path class="cls-1" d="M89,26.9c-.2,0-.4,0-.5,0-.4,0-.7,0-.7-.5v-1.7h.2v1.6c0,.4,0,.4.5.4h.5v.2Z"/>
          <path class="cls-1" d="M90.8,24.9h-.6v2h-.2v-2h-.6v-.2h1.5v.2Z"/>
          <path class="cls-1" d="M91.1,26.9l.8-2.1c0-.1.1-.2.2-.2s.2,0,.2.2l.8,2.1h-.3l-.2-.6h-1l-.2.6h-.3ZM92.4,26l-.4-1.1-.4,1.1h.8Z"/>
          <path class="cls-1" d="M95.2,26.6v-1.9h.2v2.1c0,.1,0,.2-.2.2s-.2,0-.2-.2l-1.1-1.8v1.9h-.2v-2.1c0-.1,0-.2.2-.2s.2,0,.2.2l1.1,1.8Z"/>
          <path class="cls-1" d="M97.6,26.9c-.1,0-.3,0-.5,0-.7,0-.9-.3-.9-1.1s.2-1.1.9-1.1.4,0,.5,0v.2c-.1,0-.3,0-.4,0-.7,0-.7.3-.7.9s0,.9.7.9.3,0,.4,0v.2Z"/>
          <path class="cls-1" d="M99.2,26.9h-.2v-.9l-.7-1.4h.3l.6,1.1.6-1.1h.3l-.7,1.4v.9Z"/>
        </g>
      </g>
    </g>
  </g>
</svg>